<?xml version="1.0" encoding="UTF-8"?>
<svg width="330px" height="60px" viewBox="0 0 330 60" version="1.1" xmlns="http://www.w3.org/2000/svg" xmlns:xlink="http://www.w3.org/1999/xlink">
    <!-- Generator: sketchtool 52.6 (67491) - http://www.bohemiancoding.com/sketch -->
    <title>6C4992B0-EA6A-4599-825D-803ECDC82BF6</title>
    <desc>Created with sketchtool.</desc>
    <g id="Home" stroke="none" stroke-width="1" fill="none" fill-rule="evenodd">
        <g id="Desktop:-Home" transform="translate(-130.000000, -15.000000)">
            <g id="Header">
                <g id="Masthead">
                    <g id="Logo-White" transform="translate(130.000000, 15.000000)">
                        <g id="LogoType-White" transform="translate(72.187500, 8.437500)" fill="#FEFEFE" stroke-width="1">
                            <g>
                                <polygon id="Fill-1" points="0 -0.000144230769 0 24.9772596 9.15283365 24.9772596 9.15283365 22.3012981 2.74575143 22.3012981 2.74575143 -0.000144230769"></polygon>
                                <path d="M17.0247442,-0.000144230769 L11.8987824,24.9772596 L14.6450272,24.9772596 L15.5606065,20.5171635 L21.8941859,20.5171635 L22.8097652,24.9772596 L25.5560099,24.9772596 L20.4300482,-0.000144230769 L17.0247442,-0.000144230769 Z M18.7276428,5.08495192 L21.3451342,17.8412019 L16.1096581,17.8412019 L18.7276428,5.08495192 Z" id="Fill-2"></path>
                                <path d="M32.8782275,7.13644231 L34.7088929,7.13644231 C38.3702237,7.13644231 40.2008891,8.92057692 40.2008891,12.4888462 L40.2008891,24.9773077 L37.4546444,24.9773077 L37.4546444,12.4888462 C37.4546444,10.7047115 36.5395583,9.81240385 34.7088929,9.81240385 L31.0475621,9.81240385 L31.0475621,24.9773077 L28.3018107,24.9773077 L28.3018107,-9.61538461e-05 L31.0475621,-9.61538461e-05 L31.0475621,5.35230769 L36.5395583,-9.61538461e-05 L40.2008891,-9.61538461e-05 L32.8782275,7.13644231 Z" id="Fill-3"></path>
                                <polygon id="Fill-6" points="52.0998688 0 52.0998688 2.67596154 46.6078727 2.67596154 46.6078727 7.13653846 51.1847828 7.13653846 51.1847828 9.8125 46.6078727 9.8125 46.6078727 22.3014423 53.0149549 22.3014423 53.0149549 24.9774038 43.8621212 24.9774038 43.8621212 0"></polygon>
                                <polygon id="Fill-9" points="72.2368428 0 72.2368428 2.67596154 66.7448467 2.67596154 66.7448467 7.13653846 71.3217568 7.13653846 71.3217568 9.8125 66.7448467 9.8125 66.7448467 24.9774038 63.9990952 24.9774038 63.9990952 0"></polygon>
                                <path d="M82.3053545,22.3012981 C84.1360199,22.3012981 85.0511059,21.4094712 85.0511059,19.6253365 L85.0511059,5.35225962 C85.0511059,3.568125 84.1360199,2.67629808 82.3053545,2.67629808 L81.3902685,2.67629808 C79.5596031,2.67629808 78.6440237,3.568125 78.6440237,5.35225962 L78.6440237,19.6253365 C78.6440237,21.4094712 79.5596031,22.3012981 81.3902685,22.3012981 L82.3053545,22.3012981 Z M82.3053545,-0.000144230769 C85.9666853,-0.000144230769 87.7973507,1.78399038 87.7973507,5.35225962 L87.7973507,19.6253365 C87.7973507,23.193125 85.9666853,24.9772596 82.3053545,24.9772596 L81.3902685,24.9772596 C77.7289377,24.9772596 75.8982723,23.193125 75.8982723,19.6253365 L75.8982723,5.35225962 C75.8982723,1.78399038 77.7289377,-0.000144230769 81.3902685,-0.000144230769 L82.3053545,-0.000144230769 Z" id="Fill-12"></path>
                                <path d="M94.2044822,2.67615385 L94.2044822,15.1650962 L97.4080233,15.1650962 C99.2386887,15.1650962 100.154268,14.2727885 100.154268,12.4886538 L100.154268,5.35211538 C100.154268,3.56798077 99.2386887,2.67615385 97.4080233,2.67615385 L94.2044822,2.67615385 Z M97.4080233,0.000192307692 C101.069354,0.000192307692 102.90002,1.78432692 102.90002,5.35211538 L102.90002,12.4886538 C102.90002,14.98625 102.008612,16.6098077 100.227278,17.3593269 L103.357809,24.9775962 L100.154268,24.9775962 L97.2250061,17.8410577 L94.2044822,17.8410577 L94.2044822,24.9775962 L91.4587308,24.9775962 L91.4587308,0.000192307692 L97.4080233,0.000192307692 Z" id="Fill-15"></path>
                                <polygon id="Fill-18" points="115.256789 0 115.256789 2.67596154 109.764793 2.67596154 109.764793 7.13653846 114.341703 7.13653846 114.341703 9.8125 109.764793 9.8125 109.764793 22.3014423 116.171875 22.3014423 116.171875 24.9774038 107.019041 24.9774038 107.019041 0"></polygon>
                                <path d="M123.494635,5.35230769 C123.494635,1.78403846 125.325301,-9.61538461e-05 128.986631,-9.61538461e-05 L129.901717,-9.61538461e-05 L129.901717,2.67634615 L128.986631,2.67634615 C127.155966,2.67634615 126.240387,3.56817308 126.240387,5.35230769 L126.240387,19.6249038 C126.240387,23.1931731 124.409721,24.9773077 120.748884,24.9773077 L119.833304,24.9773077 L119.833304,22.3013462 L120.748884,22.3013462 C122.579549,22.3013462 123.494635,21.4090385 123.494635,19.6249038 L123.494635,5.35230769 Z" id="Fill-21"></path>
                                <polygon id="Fill-24" points="145.462225 0 145.462225 2.67596154 140.885808 2.67596154 140.885808 24.9774038 138.139564 24.9774038 138.139564 2.67596154 133.563147 2.67596154 133.563147 0"></polygon>
                                <path d="M159.741169,17.8410577 L164.976645,17.8410577 L162.359153,5.08480769 L159.741169,17.8410577 Z M155.530786,24.9775962 L160.656255,0.000192307692 L164.061559,0.000192307692 L169.187027,24.9775962 L166.441276,24.9775962 L165.52619,20.5170192 L159.192117,20.5170192 L158.276538,24.9775962 L155.530786,24.9775962 Z" id="Fill-27"></path>
                                <path d="M181.086402,0 L181.086402,2.67596154 L177.425071,2.67596154 C175.594405,2.67596154 174.679319,3.56826923 174.679319,5.35240385 L174.679319,19.625 C174.679319,21.4091346 175.594405,22.3014423 177.425071,22.3014423 L181.086402,22.3014423 L181.086402,24.9774038 L177.425071,24.9774038 C173.76374,24.9774038 171.933075,23.1932692 171.933075,19.625 L171.933075,5.35240385 C171.933075,1.78413462 173.76374,0 177.425071,0 L181.086402,0 Z" id="Fill-30"></path>
                                <path d="M188.042782,17.8410577 L193.278258,17.8410577 L190.660767,5.08480769 L188.042782,17.8410577 Z M183.8324,24.9775962 L188.957868,0.000192307692 L192.363172,0.000192307692 L197.488641,24.9775962 L194.742889,24.9775962 L193.827803,20.5170192 L187.49373,20.5170192 L186.578151,24.9775962 L183.8324,24.9775962 Z" id="Fill-33"></path>
                                <path d="M202.980785,2.67615385 L202.980785,22.3011538 L206.642115,22.3011538 C208.472781,22.3011538 209.387867,21.4093269 209.387867,19.6251923 L209.387867,5.35211538 C209.387867,3.56798077 208.472781,2.67615385 206.642115,2.67615385 L202.980785,2.67615385 Z M206.642115,0.000192307692 C210.303446,0.000192307692 212.134112,1.78432692 212.134112,5.35211538 L212.134112,19.6251923 C212.134112,23.1934615 210.303446,24.9775962 206.642115,24.9775962 L200.235033,24.9775962 L200.235033,0.000192307692 L206.642115,0.000192307692 Z" id="Fill-36"></path>
                                <polygon id="Fill-39" points="224.033091 0 224.033091 2.67596154 218.541095 2.67596154 218.541095 7.13653846 223.118005 7.13653846 223.118005 9.8125 218.541095 9.8125 218.541095 22.3014423 224.948177 22.3014423 224.948177 24.9774038 215.795344 24.9774038 215.795344 0"></polygon>
                                <polygon id="Fill-42" points="242.3394 0 242.3394 24.9774038 239.593649 24.9774038 239.593649 6.26201923 235.474528 10.2764423 231.355408 6.26201923 231.355408 24.9774038 228.609656 24.9774038 228.609656 0 235.474528 6.70817308"></polygon>
                                <path d="M257.899809,0 L257.899809,12.4889423 C257.899809,15.7480769 256.374008,17.5197115 253.323392,17.8052885 L253.323392,24.9774038 L250.577148,24.9774038 L250.577148,17.8052885 C247.526039,17.5197115 246.000731,15.7480769 246.000731,12.4889423 L246.000731,0 L248.746482,0 L248.746482,12.4889423 C248.746482,14.2725962 249.662062,15.1649038 251.492727,15.1649038 L252.407813,15.1649038 C254.238478,15.1649038 255.154058,14.2725962 255.154058,12.4889423 L255.154058,0 L257.899809,0 Z" id="Fill-45"></path>
                            </g>
                        </g>
                        <g id="tagline" transform="translate(72.187500, 41.250000)" fill="#FFFFFF">
                            <path d="M2.92023529,0.4752 L6.04905882,8.3952 L9.19178824,0.4752 L10.9995529,0.4752 L10.9995529,9.9 L9.74802353,9.9 L9.74802353,2.0592 L9.72021176,2.0592 L6.6192,9.9 L5.49282353,9.9 L2.39181176,2.0592 L2.364,2.0592 L2.364,9.9 L1.11247059,9.9 L1.11247059,0.4752 L2.92023529,0.4752 Z M14.2535294,0.4752 L14.2535294,1.848 L13.0715294,1.848 L13.0715294,0.4752 L14.2535294,0.4752 Z M14.2535294,3.0756 L14.2535294,9.9 L13.0715294,9.9 L13.0715294,3.0756 L14.2535294,3.0756 Z M22.5136235,0.4752 L22.5136235,9.9 L21.3316235,9.9 L21.3316235,8.976 L21.3038118,8.976 C21.1183991,9.32800176 20.8240608,9.59639908 20.4207882,9.7812 C20.0175156,9.96600092 19.547038,10.0584 19.0093412,10.0584 C18.0173833,10.0584 17.217803,9.7284033 16.6105765,9.0684 C16.0033499,8.4083967 15.6997412,7.54160537 15.6997412,6.468 C15.6997412,5.39439463 15.9940794,4.53420323 16.5827647,3.8874 C17.17145,3.24059677 17.966395,2.9172 18.9676235,2.9172 C19.4404259,2.9172 19.8923626,3.00959908 20.3234471,3.1944 C20.7545316,3.37920092 21.0813165,3.64319828 21.3038118,3.9864 L21.3316235,3.9864 L21.3316235,0.4752 L22.5136235,0.4752 Z M16.9512706,6.5472 C16.9512706,7.29520374 17.1552215,7.90239767 17.5631294,8.3688 C17.9710373,8.83520233 18.5087261,9.0684 19.1762118,9.0684 C19.8529681,9.0684 20.3883392,8.83300235 20.7823412,8.3622 C21.1763431,7.89139765 21.3733412,7.26880387 21.3733412,6.4944 C21.3733412,5.71999613 21.1763431,5.09520238 20.7823412,4.62 C20.3883392,4.14479762 19.8251566,3.9072 19.0927765,3.9072 C18.4067495,3.9072 17.8783313,4.14259765 17.5075059,4.6134 C17.1366805,5.08420235 16.9512706,5.72879591 16.9512706,6.5472 Z M24.9888706,3.0756 L26.6158588,8.6592 L26.6436706,8.6592 L28.0898824,3.0756 L29.3831294,3.0756 L30.8988706,8.6592 L30.9127765,8.6592 L32.5258588,3.0756 L33.7495765,3.0756 L31.4690118,9.8868 L31.4551059,9.9 L30.2035765,9.9 L28.7295529,4.4748 L28.7156471,4.4748 L27.2694353,9.9 L25.9900941,9.9 L23.6817176,3.0756 L24.9888706,3.0756 Z M37.8657176,2.9172 C38.8854875,2.9172 39.6827501,3.26479652 40.2575294,3.96 C40.8323088,4.65520348 41.1196941,5.56599437 41.1196941,6.6924 L41.1196941,6.8244 L35.7381176,6.8244 L35.7381176,6.9036 C35.7381176,7.5636033 35.9374333,8.08939804 36.3360706,8.481 C36.7347079,8.87260196 37.2816671,9.0684 37.9769647,9.0684 C39.0060051,9.0684 39.6271283,8.62400444 39.8403529,7.7352 L41.0084471,7.7352 C40.8508463,8.50080383 40.5032027,9.07939804 39.9655059,9.471 C39.4278091,9.86260196 38.7510629,10.0584 37.9352471,10.0584 C36.8042296,10.0584 35.9467088,9.70640352 35.3626588,9.0024 C34.7786088,8.29839648 34.4865882,7.44480502 34.4865882,6.4416 C34.4865882,5.42959494 34.8064203,4.58920334 35.4460941,3.9204 C36.0857679,3.25159666 36.892301,2.9172 37.8657176,2.9172 Z M39.8681647,5.8344 C39.8310822,5.27999723 39.6201784,4.82020183 39.2354471,4.455 C38.8507157,4.08979817 38.3663323,3.9072 37.7822824,3.9072 C37.2353149,3.9072 36.7717901,4.08099826 36.3916941,4.4286 C36.0115981,4.77620174 35.7937415,5.24479705 35.7381176,5.8344 L39.8681647,5.8344 Z M44.7352235,2.9172 C45.7086402,2.9172 46.4294212,3.09539822 46.8975882,3.4518 C47.3657553,3.80820178 47.6230115,4.34279644 47.6693647,5.0556 L46.4873647,5.0556 L46.4873647,5.0424 C46.4502822,4.67279815 46.2810956,4.39120097 45.9798,4.1976 C45.6785044,4.00399903 45.2914612,3.9072 44.8186588,3.9072 C44.3458565,3.9072 43.972719,3.98199925 43.6992353,4.1316 C43.4257516,4.28120075 43.2890118,4.49679859 43.2890118,4.7784 C43.2890118,5.03360128 43.4095282,5.23819923 43.6505647,5.3922 C43.8916012,5.54620077 44.2577858,5.67599947 44.7491294,5.7816 L45.8616,6.0192 C46.5568976,6.16880075 47.0853158,6.39099853 47.4468706,6.6858 C47.8084253,6.98060147 47.9892,7.3875974 47.9892,7.9068 C47.9892,8.58440339 47.7157204,9.11239811 47.1687529,9.4908 C46.6217855,9.86920189 45.8755106,10.0584 44.9299059,10.0584 C44.0121131,10.0584 43.2843792,9.86700191 42.7466824,9.4842 C42.2089855,9.10139809 41.9216002,8.52280387 41.8845176,7.7484 L43.0665176,7.7484 C43.0850589,8.17080211 43.2611983,8.49639886 43.5949412,8.7252 C43.928684,8.95400114 44.396844,9.0684 44.9994353,9.0684 C46.1582646,9.0684 46.7376706,8.72960339 46.7376706,8.052 C46.7376706,7.7527985 46.5962955,7.51520088 46.3135412,7.3392 C46.0307868,7.16319912 45.425887,6.98280092 44.4988235,6.798 C43.6181132,6.63079916 42.9877195,6.3976015 42.6076235,6.0984 C42.2275275,5.7991985 42.0374824,5.38560264 42.0374824,4.8576 C42.0374824,4.2767971 42.2808329,3.80820178 42.7675412,3.4518 C43.2542495,3.09539822 43.9101371,2.9172 44.7352235,2.9172 Z M50.9372471,1.0296 L50.9372471,3.0756 L52.3695529,3.0756 L52.3695529,4.0656 L50.9372471,4.0656 L50.9372471,8.3424 C50.9372471,8.54480101 50.9789643,8.68999956 51.0624,8.778 C51.1458357,8.86600044 51.3544219,8.91 51.6881647,8.91 L52.3695529,8.91 L52.3695529,9.9 L51.3961412,9.9 C50.7842793,9.9 50.3578365,9.80320097 50.1168,9.6096 C49.8757635,9.41599903 49.7552471,9.03760282 49.7552471,8.4744 L49.7552471,4.0656 L48.5315294,4.0656 L48.5315294,3.0756 L49.7552471,3.0756 L49.7552471,1.0296 L50.9372471,1.0296 Z M56.6664706,2.9172 C57.6862404,2.9172 58.483503,3.26479652 59.0582824,3.96 C59.6330617,4.65520348 59.9204471,5.56599437 59.9204471,6.6924 L59.9204471,6.8244 L54.5388706,6.8244 L54.5388706,6.9036 C54.5388706,7.5636033 54.7381862,8.08939804 55.1368235,8.481 C55.5354608,8.87260196 56.0824201,9.0684 56.7777176,9.0684 C57.8067581,9.0684 58.4278813,8.62400444 58.6411059,7.7352 L59.8092,7.7352 C59.6515992,8.50080383 59.3039556,9.07939804 58.7662588,9.471 C58.228562,9.86260196 57.5518158,10.0584 56.736,10.0584 C55.6049826,10.0584 54.7474617,9.70640352 54.1634118,9.0024 C53.5793618,8.29839648 53.2873412,7.44480502 53.2873412,6.4416 C53.2873412,5.42959494 53.6071733,4.58920334 54.2468471,3.9204 C54.8865208,3.25159666 55.693054,2.9172 56.6664706,2.9172 Z M58.6689176,5.8344 C58.6318351,5.27999723 58.4209313,4.82020183 58.0362,4.455 C57.6514687,4.08979817 57.1670853,3.9072 56.5830353,3.9072 C56.0360679,3.9072 55.5725431,4.08099826 55.1924471,4.4286 C54.812351,4.77620174 54.5944944,5.24479705 54.5388706,5.8344 L58.6689176,5.8344 Z M64.8848471,2.9172 L64.8848471,4.1052 C63.9948661,4.1052 63.3389786,4.32739778 62.9171647,4.7718 C62.4953508,5.21620222 62.2844471,5.90919529 62.2844471,6.8508 L62.2844471,9.9 L61.1024471,9.9 L61.1024471,3.0756 L62.2149176,3.0756 L62.2149176,4.5144 L62.2427294,4.5144 C62.7896969,3.44959468 63.614771,2.9172 64.7179765,2.9172 L64.8848471,2.9172 Z M69.2512941,2.9172 C70.9014671,2.9172 71.7265412,3.73119186 71.7265412,5.3592 L71.7265412,9.9 L70.5445412,9.9 L70.5445412,5.2404 C70.5445412,4.86199811 70.4193895,4.54520128 70.1690824,4.29 C69.9187752,4.03479872 69.5525906,3.9072 69.0705176,3.9072 C68.3937613,3.9072 67.8722959,4.10079806 67.5061059,4.488 C67.1399158,4.87520194 66.9568235,5.38119688 66.9568235,6.006 L66.9568235,9.9 L65.7748235,9.9 L65.7748235,3.0756 L66.8872941,3.0756 L66.8872941,4.158 L66.9151059,4.158 C67.4342614,3.33079586 68.212983,2.9172 69.2512941,2.9172 Z M78.8880706,0.4752 L78.8880706,4.5276 L84.1166824,4.5276 L84.1166824,0.4752 L85.4377412,0.4752 L85.4377412,9.9 L84.1166824,9.9 L84.1166824,5.5836 L78.8880706,5.5836 L78.8880706,9.9 L77.5670118,9.9 L77.5670118,0.4752 L78.8880706,0.4752 Z M90.4021412,2.9172 C91.421911,2.9172 92.2191736,3.26479652 92.7939529,3.96 C93.3687323,4.65520348 93.6561176,5.56599437 93.6561176,6.6924 L93.6561176,6.8244 L88.2745412,6.8244 L88.2745412,6.9036 C88.2745412,7.5636033 88.4738568,8.08939804 88.8724941,8.481 C89.2711314,8.87260196 89.8180906,9.0684 90.5133882,9.0684 C91.5424287,9.0684 92.1635519,8.62400444 92.3767765,7.7352 L93.5448706,7.7352 C93.3872698,8.50080383 93.0396262,9.07939804 92.5019294,9.471 C91.9642326,9.86260196 91.2874864,10.0584 90.4716706,10.0584 C89.3406532,10.0584 88.4831323,9.70640352 87.8990824,9.0024 C87.3150324,8.29839648 87.0230118,7.44480502 87.0230118,6.4416 C87.0230118,5.42959494 87.3428439,4.58920334 87.9825176,3.9204 C88.6221914,3.25159666 89.4287245,2.9172 90.4021412,2.9172 Z M92.4045882,5.8344 C92.3675057,5.27999723 92.1566019,4.82020183 91.7718706,4.455 C91.3871393,4.08979817 90.9027559,3.9072 90.3187059,3.9072 C89.7717384,3.9072 89.3082137,4.08099826 88.9281176,4.4286 C88.5480216,4.77620174 88.330165,5.24479705 88.2745412,5.8344 L92.4045882,5.8344 Z M97.8278824,2.9172 C99.6171148,2.9172 100.511718,3.52879388 100.511718,4.752 L100.511718,8.6856 C100.511718,8.94080128 100.636869,9.0684 100.887176,9.0684 C101.007695,9.0684 101.128211,9.04640022 101.248729,9.0024 L101.248729,9.8736 C101.016964,9.99680062 100.734213,10.0584 100.400471,10.0584 C99.7329849,10.0584 99.3992471,9.70640352 99.3992471,9.0024 C98.7688439,9.70640352 97.9252288,10.0584 96.8683765,10.0584 C96.1267257,10.0584 95.5450021,9.89340165 95.1231882,9.5634 C94.7013744,9.23339835 94.4904706,8.76040308 94.4904706,8.1444 C94.4904706,7.53719696 94.6990567,7.0532018 95.1162353,6.6924 C95.5334139,6.3315982 96.5021806,6.05880092 98.0225647,5.874 C98.5417202,5.81239969 98.8916814,5.71780064 99.0724588,5.5902 C99.2532362,5.46259936 99.3436235,5.27560123 99.3436235,5.0292 C99.3436235,4.28119626 98.81057,3.9072 97.7444471,3.9072 C97.1603971,3.9072 96.7223662,4.01059897 96.4303412,4.2174 C96.1383162,4.42420103 95.9784001,4.75199776 95.9505882,5.2008 L94.7685882,5.2008 C94.8612946,3.67839239 95.8810491,2.9172 97.8278824,2.9172 Z M95.742,8.0652 C95.742,8.38200158 95.8625164,8.62839912 96.1035529,8.8044 C96.3445894,8.98040088 96.6875978,9.0684 97.1325882,9.0684 C97.772262,9.0684 98.2983626,8.9188015 98.7109059,8.6196 C99.1234491,8.3203985 99.3297176,7.96400207 99.3297176,7.5504 L99.3297176,6.3756 C99.1164931,6.5164007 98.8383782,6.60879978 98.4953647,6.6528 L97.2855529,6.8244 C96.7571268,6.89480035 96.367766,7.02899901 96.1174588,7.227 C95.8671517,7.42500099 95.742,7.7043982 95.742,8.0652 Z M106.087976,2.9172 L106.087976,4.1052 C105.197996,4.1052 104.542108,4.32739778 104.120294,4.7718 C103.69848,5.21620222 103.487576,5.90919529 103.487576,6.8508 L103.487576,9.9 L102.305576,9.9 L102.305576,3.0756 L103.418047,3.0756 L103.418047,4.5144 L103.445859,4.5144 C103.992826,3.44959468 104.8179,2.9172 105.921106,2.9172 L106.087976,2.9172 Z M108.618847,1.0296 L108.618847,3.0756 L110.051153,3.0756 L110.051153,4.0656 L108.618847,4.0656 L108.618847,8.3424 C108.618847,8.54480101 108.660564,8.68999956 108.744,8.778 C108.827436,8.86600044 109.036022,8.91 109.369765,8.91 L110.051153,8.91 L110.051153,9.9 L109.077741,9.9 C108.465879,9.9 108.039436,9.80320097 107.7984,9.6096 C107.557364,9.41599903 107.436847,9.03760282 107.436847,8.4744 L107.436847,4.0656 L106.213129,4.0656 L106.213129,3.0756 L107.436847,3.0756 L107.436847,1.0296 L108.618847,1.0296 Z M113.166071,8.4348 L113.166071,9.9 L111.622518,9.9 L111.622518,8.4348 L113.166071,8.4348 Z M123.525953,0.2508 C124.703324,0.2508 125.669773,0.516997338 126.425329,1.0494 C127.180886,1.58180266 127.637458,2.3583949 127.795059,3.3792 L126.474,3.3792 C126.344211,2.71039666 126.024379,2.19780178 125.514494,1.8414 C125.004609,1.48499822 124.341769,1.3068 123.525953,1.3068 C122.496913,1.3068 121.671838,1.66759639 121.050706,2.3892 C120.429573,3.11080361 120.119012,4.08319388 120.119012,5.3064 C120.119012,6.37120532 120.431891,7.26439639 121.057659,7.986 C121.683427,8.70760361 122.506183,9.0684 123.525953,9.0684 C124.443746,9.0684 125.203926,8.80000268 125.806518,8.2632 C126.409109,7.72639732 126.7104,7.0180044 126.7104,6.138 L126.7104,5.9928 L123.539859,5.9928 L123.539859,4.9368 L127.8924,4.9368 L127.8924,9.9 L127.058047,9.9 L126.7104,8.7252 C126.348845,9.17400224 125.889956,9.51939879 125.333718,9.7614 C124.77748,10.0034012 124.174897,10.1244 123.525953,10.1244 C122.17244,10.1244 121.046075,9.66680458 120.146824,8.7516 C119.247572,7.83639542 118.797953,6.71000669 118.797953,5.3724 C118.797953,3.87639252 119.217443,2.6488048 120.056435,1.6896 C120.895428,0.730395204 122.051922,0.2508 123.525953,0.2508 Z M130.896071,0.4752 L130.896071,9.9 L129.714071,9.9 L129.714071,0.4752 L130.896071,0.4752 Z M135.832659,2.9172 C136.908052,2.9172 137.75862,3.24279674 138.384388,3.894 C139.010156,4.54520326 139.323035,5.41199459 139.323035,6.4944 C139.323035,7.53280519 139.010156,8.38639666 138.384388,9.0552 C137.75862,9.72400334 136.908052,10.0584 135.832659,10.0584 C134.775806,10.0584 133.929874,9.73500323 133.294835,9.0882 C132.659797,8.44139677 132.342282,7.57680541 132.342282,6.4944 C132.342282,5.40319454 132.655162,4.53420323 133.280929,3.8874 C133.906697,3.24059677 134.757265,2.9172 135.832659,2.9172 Z M133.593812,6.4944 C133.593812,7.26000383 133.802398,7.88039762 134.219576,8.3556 C134.636755,8.83080238 135.174444,9.0684 135.832659,9.0684 C136.481603,9.0684 137.016974,8.83300235 137.438788,8.3622 C137.860602,7.89139765 138.071506,7.26880387 138.071506,6.4944 C138.071506,5.72879617 137.86292,5.1062024 137.445741,4.6266 C137.028563,4.1469976 136.486239,3.9072 135.818753,3.9072 C135.179079,3.9072 134.648343,4.14919758 134.226529,4.6332 C133.804716,5.11720242 133.593812,5.73759622 133.593812,6.4944 Z M141.937341,0.4752 L141.937341,3.9996 L141.965153,3.9996 C142.345249,3.27799639 143.110065,2.9172 144.259624,2.9172 C145.260852,2.9172 146.06275,3.2471967 146.665341,3.9072 C147.267932,4.5672033 147.569224,5.43399463 147.569224,6.5076 C147.569224,7.57240532 147.27025,8.43039674 146.672294,9.0816 C146.074338,9.73280326 145.279393,10.0584 144.287435,10.0584 C143.842445,10.0584 143.406732,9.97260086 142.980282,9.801 C142.553833,9.62939914 142.21546,9.35880185 141.965153,8.9892 L141.937341,8.9892 L141.937341,9.9 L140.755341,9.9 L140.755341,0.4752 L141.937341,0.4752 Z M141.895624,6.4812 C141.895624,7.27320396 142.092622,7.90239767 142.486624,8.3688 C142.880625,8.83520233 143.439173,9.0684 144.162282,9.0684 C144.848309,9.0684 145.379045,8.83740231 145.754506,8.3754 C146.129967,7.91339769 146.317694,7.26440418 146.317694,6.4284 C146.317694,5.68039626 146.116061,5.07320233 145.712788,4.6068 C145.309516,4.14039767 144.764874,3.9072 144.078847,3.9072 C143.411361,3.9072 142.880625,4.14039767 142.486624,4.6068 C142.092622,5.07320233 141.895624,5.69799608 141.895624,6.4812 Z M151.907859,2.9172 C153.697091,2.9172 154.591694,3.52879388 154.591694,4.752 L154.591694,8.6856 C154.591694,8.94080128 154.716846,9.0684 154.967153,9.0684 C155.087671,9.0684 155.208188,9.04640022 155.328706,9.0024 L155.328706,9.8736 C155.09694,9.99680062 154.81419,10.0584 154.480447,10.0584 C153.812961,10.0584 153.479224,9.70640352 153.479224,9.0024 C152.84882,9.70640352 152.005205,10.0584 150.948353,10.0584 C150.206702,10.0584 149.624979,9.89340165 149.203165,9.5634 C148.781351,9.23339835 148.570447,8.76040308 148.570447,8.1444 C148.570447,7.53719696 148.779033,7.0532018 149.196212,6.6924 C149.61339,6.3315982 150.582157,6.05880092 152.102541,5.874 C152.621697,5.81239969 152.971658,5.71780064 153.152435,5.5902 C153.333213,5.46259936 153.4236,5.27560123 153.4236,5.0292 C153.4236,4.28119626 152.890547,3.9072 151.824424,3.9072 C151.240374,3.9072 150.802343,4.01059897 150.510318,4.2174 C150.218293,4.42420103 150.058377,4.75199776 150.030565,5.2008 L148.848565,5.2008 C148.941271,3.67839239 149.961026,2.9172 151.907859,2.9172 Z M149.821976,8.0652 C149.821976,8.38200158 149.942493,8.62839912 150.183529,8.8044 C150.424566,8.98040088 150.767574,9.0684 151.212565,9.0684 C151.852238,9.0684 152.378339,8.9188015 152.790882,8.6196 C153.203426,8.3203985 153.409694,7.96400207 153.409694,7.5504 L153.409694,6.3756 C153.19647,6.5164007 152.918355,6.60879978 152.575341,6.6528 L151.365529,6.8244 C150.837103,6.89480035 150.447742,7.02899901 150.197435,7.227 C149.947128,7.42500099 149.821976,7.7043982 149.821976,8.0652 Z M157.6788,0.4752 L157.6788,9.9 L156.4968,9.9 L156.4968,0.4752 L157.6788,0.4752 Z M165.410471,0.4752 L168.539294,8.3952 L171.682024,0.4752 L173.489788,0.4752 L173.489788,9.9 L172.238259,9.9 L172.238259,2.0592 L172.210447,2.0592 L169.109435,9.9 L167.983059,9.9 L164.882047,2.0592 L164.854235,2.0592 L164.854235,9.9 L163.602706,9.9 L163.602706,0.4752 L165.410471,0.4752 Z M176.743765,0.4752 L176.743765,1.848 L175.561765,1.848 L175.561765,0.4752 L176.743765,0.4752 Z M176.743765,3.0756 L176.743765,9.9 L175.561765,9.9 L175.561765,3.0756 L176.743765,3.0756 Z M182.055812,2.9172 C183.705985,2.9172 184.531059,3.73119186 184.531059,5.3592 L184.531059,9.9 L183.349059,9.9 L183.349059,5.2404 C183.349059,4.86199811 183.223907,4.54520128 182.9736,4.29 C182.723293,4.03479872 182.357108,3.9072 181.875035,3.9072 C181.198279,3.9072 180.676814,4.10079806 180.310624,4.488 C179.944433,4.87520194 179.761341,5.38119688 179.761341,6.006 L179.761341,9.9 L178.579341,9.9 L178.579341,3.0756 L179.691812,3.0756 L179.691812,4.158 L179.719624,4.158 C180.238779,3.33079586 181.017501,2.9172 182.055812,2.9172 Z M192.735529,0.4752 L192.735529,9.9 L191.553529,9.9 L191.553529,8.976 L191.525718,8.976 C191.340305,9.32800176 191.045967,9.59639908 190.642694,9.7812 C190.239422,9.96600092 189.768944,10.0584 189.231247,10.0584 C188.239289,10.0584 187.439709,9.7284033 186.832482,9.0684 C186.225256,8.4083967 185.921647,7.54160537 185.921647,6.468 C185.921647,5.39439463 186.215985,4.53420323 186.804671,3.8874 C187.393356,3.24059677 188.188301,2.9172 189.189529,2.9172 C189.662332,2.9172 190.114268,3.00959908 190.545353,3.1944 C190.976437,3.37920092 191.303222,3.64319828 191.525718,3.9864 L191.553529,3.9864 L191.553529,0.4752 L192.735529,0.4752 Z M187.173176,6.5472 C187.173176,7.29520374 187.377127,7.90239767 187.785035,8.3688 C188.192943,8.83520233 188.730632,9.0684 189.398118,9.0684 C190.074874,9.0684 190.610245,8.83300235 191.004247,8.3622 C191.398249,7.89139765 191.595247,7.26880387 191.595247,6.4944 C191.595247,5.71999613 191.398249,5.09520238 191.004247,4.62 C190.610245,4.14479762 190.047062,3.9072 189.314682,3.9072 C188.628655,3.9072 188.100237,4.14259765 187.729412,4.6134 C187.358586,5.08420235 187.173176,5.72879591 187.173176,6.5472 Z M196.364965,8.4348 L196.364965,9.9 L194.821412,9.9 L194.821412,8.4348 L196.364965,8.4348 Z" id="Midwestern-Heart.-Gl"></path>
                        </g>
                        <g id="Logo-Bell-Transparent-White" fill="#FFFFFF" stroke-width="1">
                            <g id="Group-16">
                                <path d="M59.9712463,-7.1641791e-05 L59.9712463,54.7813612 L29.9854896,59.9666149 L-8.90207715e-05,54.7813612 L-8.90207715e-05,-7.1641791e-05 L29.9854896,5.29909254 L59.9712463,-7.1641791e-05 Z M29.9855786,57.6519761 L57.5756083,52.6198567 L57.5756083,2.78761791 L29.9855786,7.82081194 L29.9855786,57.6519761 Z M29.9855786,14.2009433 L14.4934718,14.2009433 L14.4934718,28.1730627 L18.677092,28.1730627 L18.677092,25.6743761 L20.0718694,25.6743761 C19.8452226,27.2904358 19.9426113,28.1553313 19.9426113,28.1553313 L29.9855786,28.1553313 L29.9855786,18.7996299 C20.4523442,18.7996299 20.17727,24.1192119 20.17727,24.1192119 L18.7331751,24.1192119 C19.9374481,16.8529433 29.9855786,17.4289433 29.9855786,17.4289433 L29.9855786,14.2009433 Z M29.9855786,29.7742925 L19.8445104,29.7742925 C19.2706825,40.0944716 16.2106825,41.9394269 16.2106825,41.9394269 L29.9855786,41.9394269 L29.9855786,29.7742925 Z M29.9855786,43.4735104 L15.0648071,43.4735104 C15.0648071,43.4735104 12.7162611,45.0274209 12.8862908,48.1413313 L28.3613056,48.1413313 L28.3613056,50.7650328 L29.9855786,50.7367343 L29.9855786,43.4735104 Z" id="Combined-Shape"></path>
                                <path d="M30.0079941,29.7742925 L40.1479941,29.7742925 C40.7239585,40.0944716 43.7803976,41.9394269 43.7803976,41.9394269 L30.0079941,41.9394269 L30.0079941,29.7742925 Z" id="Fill-9"></path>
                                <path d="M29.9855786,43.4735104 L29.9855786,50.7367343 L31.6093175,50.7650328 L31.6093175,48.1413313 L47.0839763,48.1413313 C47.2557864,45.0274209 44.9072404,43.4735104 44.9072404,43.4735104 L29.9855786,43.4735104 Z" id="Fill-11"></path>
                                <path d="M29.9855786,14.2009433 L45.4778635,14.2009433 L45.4778635,28.1730627 L41.2949555,28.1730627 L41.2949555,25.6743761 L39.8976855,25.6743761 C40.1261128,27.2904358 40.0301484,28.1553313 40.0301484,28.1553313 L29.9855786,28.1553313 L29.9855786,18.7996299 C39.5189911,18.7996299 39.7954896,24.1192119 39.7954896,24.1192119 L41.2402967,24.1192119 C40.0338872,16.8529433 29.9855786,17.4289433 29.9855786,17.4289433 L29.9855786,14.2009433 Z" id="Fill-13"></path>
                            </g>
                        </g>
                    </g>
                </g>
            </g>
        </g>
    </g>
</svg>